<?xml version="1.0" standalone="no"?><!DOCTYPE svg PUBLIC "-//W3C//DTD SVG 1.1//EN" "http://www.w3.org/Graphics/SVG/1.1/DTD/svg11.dtd"><svg t="1618283205317" class="icon" viewBox="0 0 1159 1024" version="1.1" xmlns="http://www.w3.org/2000/svg" p-id="4558" xmlns:xlink="http://www.w3.org/1999/xlink" width="226.3671875" height="200"><defs><style type="text/css"></style></defs><path d="M377.631206 652.909128l-50.485203-38.171739a16.487729 16.487729 0 0 0-20.932889 0.788062L212.43377 697.188345a16.733998 16.733998 0 0 0-5.713447 12.79369v281.978331a16.709371 16.709371 0 0 0 16.647803 16.746311h144.313801a16.709371 16.709371 0 0 0 16.647804-16.746311V666.306177a16.746311 16.746311 0 0 0-6.698525-13.397049z m332.168012-20.194081l-44.82101 44.722502a16.573923 16.573923 0 0 1-19.701543 2.856724l-59.794182-32.803069a16.684744 16.684744 0 0 0-25.02096 14.46832v330.000842A16.709371 16.709371 0 0 0 577.109327 1008.718991h144.313801a16.709371 16.709371 0 0 0 16.647804-16.758625V644.63448c0.098508-14.874665-17.829896-22.361251-28.320968-11.919433zM1043.543353 420.615625a16.549296 16.549296 0 0 0-24.331406-1.970154l-99.591298 91.218143a16.844819 16.844819 0 0 0-5.417925 12.411972v469.68478a16.709371 16.709371 0 0 0 16.647804 16.746311h144.313801a16.709371 16.709371 0 0 0 16.647803-16.746311V488.105723a17.066461 17.066461 0 0 0-3.546277-10.34331zM1139.686881 7.585094A19.935499 19.935499 0 0 0 1124.024155 0a25.956783 25.956783 0 0 0-2.758216 0.197015l-237.403591 32.704561a20.070947 20.070947 0 0 0-12.116448 33.246354l51.224011 56.740443L652.467728 372.457666a27.089621 27.089621 0 0 1-18.470196 7.191064 26.707904 26.707904 0 0 1-12.904511-3.250755L385.610331 248.63347a56.346412 56.346412 0 0 0-62.355383 5.811955L162.145582 385.263669a46.347879 46.347879 0 0 0-9.555248 10.540326A66.960619 66.960619 0 0 0 138.75 436.783204a67.416217 67.416217 0 0 0 67.182261 67.563978 67.256142 67.256142 0 0 0 32.015007-8.17614 56.284845 56.284845 0 0 0 8.274648-5.319417h0.098508c0.098508-0.098508 0.295523-0.197015 0.39403-0.295523l0.098508-0.098508c0.788062-0.591046 1.576123-1.231346 2.462693-1.970154l119.78538-97.276368a23.962001 23.962001 0 0 1 26.400068-2.462692l225.188634 121.903296a56.962086 56.962086 0 0 0 26.794098 6.797032 56.186337 56.186337 0 0 0 38.171739-14.973173l316.603793-291.829102 51.716549 57.331489a19.800051 19.800051 0 0 0 34.182177-8.668678l55.410589-234.645375a20.292589 20.292589 0 0 0-3.694039-17.041835z m0 0" p-id="4559"></path></svg>